{
    "asset" : {
        "generator" : "Khronos glTF Blender I/O v0.9.36",
        "version" : "2.0"
    },
    "scene" : 0,
    "scenes" : [
        {
            "name" : "Scene",
            "nodes" : [
                0,
                1,
                2,
                3,
                4
            ]
        }
    ],
    "nodes" : [
        {
            "name" : "Sun",
            "translation" : [
                10.517574310302734,
                8.85086727142334,
                -8.375879287719727
            ]
        },
        {
            "mesh" : 0,
            "name" : "Plane",
            "scale" : [
                1.1503063440322876,
                1.1503063440322876,
                1.1503063440322876
            ],
            "translation" : [
                0,
                1.4520263671875,
                -0.1349707841873169
            ]
        },
        {
            "mesh" : 1,
            "name" : "Pilot",
            "scale" : [
                1.1503063440322876,
                1.1503063440322876,
                1.1503063440322876
            ],
            "translation" : [
                0,
                2.269176483154297,
                1.6778771877288818
            ]
        },
        {
            "mesh" : 2,
            "name" : "CoPilot",
            "rotation" : [
                0.06578677892684937,
                0,
                0,
                0.9978337287902832
            ],
            "scale" : [
                1.1503063440322876,
                1.1503063440322876,
                1.1503063440322876
            ],
            "translation" : [
                0,
                2.169971466064453,
                3.502877712249756
            ]
        },
        {
            "mesh" : 3,
            "name" : "Propeller",
            "rotation" : [
                0.6532815098762512,
                -0.27059805393218994,
                -0.27059805393218994,
                0.6532814502716064
            ],
            "scale" : [
                1.1503064632415771,
                1.1503063440322876,
                1.1503064632415771
            ],
            "translation" : [
                0,
                1.4520263671875,
                -2.632628917694092
            ]
        }
    ],
    "materials" : [
        {
            "doubleSided" : true,
            "name" : "Material.001",
            "pbrMetallicRoughness" : {
                "baseColorTexture" : {
                    "index" : 0,
                    "texCoord" : 0
                },
                "metallicFactor" : 0,
                "roughnessFactor" : 0.4272727370262146
            }
        },
        {
            "doubleSided" : true,
            "name" : "Material.004",
            "pbrMetallicRoughness" : {
                "baseColorTexture" : {
                    "index" : 1,
                    "texCoord" : 0
                },
                "metallicFactor" : 0,
                "roughnessFactor" : 1
            }
        },
        {
            "doubleSided" : true,
            "name" : "Material.005",
            "pbrMetallicRoughness" : {
                "baseColorTexture" : {
                    "index" : 2,
                    "texCoord" : 0
                },
                "metallicFactor" : 0,
                "roughnessFactor" : 1
            }
        },
        {
            "doubleSided" : true,
            "name" : "Material.003",
            "pbrMetallicRoughness" : {
                "baseColorTexture" : {
                    "index" : 3,
                    "texCoord" : 0
                },
                "metallicFactor" : 0,
                "roughnessFactor" : 0.4272727370262146
            }
        }
    ],
    "meshes" : [
        {
            "name" : "Plane.003",
            "primitives" : [
                {
                    "attributes" : {
                        "POSITION" : 0,
                        "NORMAL" : 1,
                        "TEXCOORD_0" : 2
                    },
                    "indices" : 3,
                    "material" : 0
                }
            ]
        },
        {
            "name" : "Cube.001",
            "primitives" : [
                {
                    "attributes" : {
                        "POSITION" : 4,
                        "NORMAL" : 5,
                        "TEXCOORD_0" : 6
                    },
                    "indices" : 7,
                    "material" : 1
                }
            ]
        },
        {
            "name" : "Cube.002",
            "primitives" : [
                {
                    "attributes" : {
                        "POSITION" : 8,
                        "NORMAL" : 9,
                        "TEXCOORD_0" : 10
                    },
                    "indices" : 11,
                    "material" : 2
                }
            ]
        },
        {
            "name" : "Cylinder.002",
            "primitives" : [
                {
                    "attributes" : {
                        "POSITION" : 12,
                        "NORMAL" : 13,
                        "TEXCOORD_0" : 14
                    },
                    "indices" : 15,
                    "material" : 3
                }
            ]
        }
    ],
    "textures" : [
        {
            "source" : 0
        },
        {
            "source" : 1
        },
        {
            "source" : 1
        },
        {
            "source" : 2
        }
    ],
    "images" : [
        {
            "bufferView" : 4,
            "mimeType" : "image/jpeg",
            "name" : "PlaneTexV1"
        },
        {
            "bufferView" : 9,
            "mimeType" : "image/jpeg",
            "name" : "PilotTexV1"
        },
        {
            "bufferView" : 18,
            "mimeType" : "image/jpeg",
            "name" : "PropTexV1"
        }
    ],
    "accessors" : [
        {
            "bufferView" : 0,
            "componentType" : 5126,
            "count" : 3095,
            "max" : [
                6.910928726196289,
                2.156529188156128,
                9.724760055541992
            ],
            "min" : [
                -6.910928726196289,
                -2.9240593910217285,
                -2.0167171955108643
            ],
            "type" : "VEC3"
        },
        {
            "bufferView" : 1,
            "componentType" : 5126,
            "count" : 3095,
            "type" : "VEC3"
        },
        {
            "bufferView" : 2,
            "componentType" : 5126,
            "count" : 3095,
            "type" : "VEC2"
        },
        {
            "bufferView" : 3,
            "componentType" : 5123,
            "count" : 4584,
            "type" : "SCALAR"
        },
        {
            "bufferView" : 5,
            "componentType" : 5126,
            "count" : 138,
            "max" : [
                0.43080735206604004,
                0.9405360221862793,
                0.3951990306377411
            ],
            "min" : [
                -0.43080735206604004,
                -0.46818411350250244,
                -0.5536545515060425
            ],
            "type" : "VEC3"
        },
        {
            "bufferView" : 6,
            "componentType" : 5126,
            "count" : 138,
            "type" : "VEC3"
        },
        {
            "bufferView" : 7,
            "componentType" : 5126,
            "count" : 138,
            "type" : "VEC2"
        },
        {
            "bufferView" : 8,
            "componentType" : 5123,
            "count" : 462,
            "type" : "SCALAR"
        },
        {
            "bufferView" : 10,
            "componentType" : 5126,
            "count" : 114,
            "max" : [
                0.3722444474697113,
                0.9318536520004272,
                0.36321762204170227
            ],
            "min" : [
                -0.3722444474697113,
                -0.430296391248703,
                -0.5152410268783569
            ],
            "type" : "VEC3"
        },
        {
            "bufferView" : 11,
            "componentType" : 5126,
            "count" : 114,
            "type" : "VEC3"
        },
        {
            "bufferView" : 12,
            "componentType" : 5126,
            "count" : 114,
            "type" : "VEC2"
        },
        {
            "bufferView" : 13,
            "componentType" : 5123,
            "count" : 414,
            "type" : "SCALAR"
        },
        {
            "bufferView" : 14,
            "componentType" : 5126,
            "count" : 396,
            "max" : [
                2.409299373626709,
                0.15407505631446838,
                0.313321590423584
            ],
            "min" : [
                -2.409299373626709,
                -0.48436039686203003,
                -0.313321590423584
            ],
            "type" : "VEC3"
        },
        {
            "bufferView" : 15,
            "componentType" : 5126,
            "count" : 396,
            "type" : "VEC3"
        },
        {
            "bufferView" : 16,
            "componentType" : 5126,
            "count" : 396,
            "type" : "VEC2"
        },
        {
            "bufferView" : 17,
            "componentType" : 5123,
            "count" : 921,
            "type" : "SCALAR"
        }
    ],
    "bufferViews" : [
        {
            "buffer" : 0,
            "byteLength" : 37140,
            "byteOffset" : 0
        },
        {
            "buffer" : 0,
            "byteLength" : 37140,
            "byteOffset" : 37140
        },
        {
            "buffer" : 0,
            "byteLength" : 24760,
            "byteOffset" : 74280
        },
        {
            "buffer" : 0,
            "byteLength" : 9168,
            "byteOffset" : 99040
        },
        {
            "buffer" : 0,
            "byteLength" : 781718,
            "byteOffset" : 108208
        },
        {
            "buffer" : 0,
            "byteLength" : 1656,
            "byteOffset" : 889928
        },
        {
            "buffer" : 0,
            "byteLength" : 1656,
            "byteOffset" : 891584
        },
        {
            "buffer" : 0,
            "byteLength" : 1104,
            "byteOffset" : 893240
        },
        {
            "buffer" : 0,
            "byteLength" : 924,
            "byteOffset" : 894344
        },
        {
            "buffer" : 0,
            "byteLength" : 140097,
            "byteOffset" : 895268
        },
        {
            "buffer" : 0,
            "byteLength" : 1368,
            "byteOffset" : 1035368
        },
        {
            "buffer" : 0,
            "byteLength" : 1368,
            "byteOffset" : 1036736
        },
        {
            "buffer" : 0,
            "byteLength" : 912,
            "byteOffset" : 1038104
        },
        {
            "buffer" : 0,
            "byteLength" : 828,
            "byteOffset" : 1039016
        },
        {
            "buffer" : 0,
            "byteLength" : 4752,
            "byteOffset" : 1039844
        },
        {
            "buffer" : 0,
            "byteLength" : 4752,
            "byteOffset" : 1044596
        },
        {
            "buffer" : 0,
            "byteLength" : 3168,
            "byteOffset" : 1049348
        },
        {
            "buffer" : 0,
            "byteLength" : 1842,
            "byteOffset" : 1052516
        },
        {
            "buffer" : 0,
            "byteLength" : 255490,
            "byteOffset" : 1054360
        }
    ],
    "buffers" : [
        {
            "byteLength" : 1309852,
            "uri" : "data:application/octet-stream;base64,"
        }
    ]
}
